<?xml version="1.0" encoding="utf-8"?>
<!-- Generator: Adobe Illustrator 26.1.0, SVG Export Plug-In . SVG Version: 6.00 Build 0)  -->
<svg version="1.1" id="Livello_1" xmlns="http://www.w3.org/2000/svg" xmlns:xlink="http://www.w3.org/1999/xlink" x="0px" y="0px"
	 viewBox="0 0 970.7 565.5" style="enable-background:new 0 0 970.7 565.5;" xml:space="preserve">
<style type="text/css">
	.st0{fill:#010202;}
</style>
<g>
	<polygon class="st0" points="275.5,269.2 371.2,238.1 278.4,324.6 287.1,335.5 406.6,252.9 362,362.6 474.9,225 541.6,255.5 
		535.4,182.4 702.9,122.4 584.6,127.5 702.5,42.8 695.2,30.8 582.6,89.1 644.1,9.5 633.9,0 522.8,99.4 507.8,29 457.4,136 
		339.7,147.5 400.9,185.2 270,256.4 	"/>
	<path class="st0" d="M70.3,416.8l-7.1,40.1c-4.4-8.5-11.7-12.7-21.7-12.7C16.8,444.3,0,466.9,0,495.5c0,21.2,11,33.8,28.4,33.8
		c9.9,0,18.1-3.8,24.6-12l-1.6,9.9H72l19.4-110.4H70.3z M36.3,512c-8.9,0-14.5-6.2-14.5-19.2c0-16.9,6.7-30.2,23.3-30.2
		c9.5,0,14.3,3.8,14.3,18.4C59.5,500,48.1,512,36.3,512z"/>
	<path class="st0" d="M135.7,444.3c-29.4,0-49.9,21-49.9,50.4c0,20.5,12.3,34.7,35,34.7c28.9,0,49.5-21,49.5-50.6
		C170.2,457.9,157.6,444.3,135.7,444.3z M123.9,511.5c-10.7,0-15.9-4.1-15.9-18.1c0-19.1,7.9-31.1,24.6-31.1
		c10.5,0,15.9,3.3,15.9,17.9C148.5,499.3,140.5,511.5,123.9,511.5z"/>
	<path class="st0" d="M231,444.3c-13,0-22,4.9-28.6,14l2.1-11.8h-20.4l-14.3,80.8h21.4l8.2-46.3c2.1-12.3,8.7-18.6,19.9-18.6
		c8.1,0,11.7,1.8,11.7,9c0,2-0.2,4.3-0.7,6.9l-8.7,49h21.5l9.9-56c0.3-2.1,0.5-4.3,0.5-6.2C253.5,451.5,244.5,444.3,231,444.3z"/>
	<path class="st0" d="M307.8,474l-3.6,21c-1.8,10-7.1,15.8-15.3,15.8c-6.9,0-10.2-2.6-10.2-9.7c0-1.8,0.2-3.9,0.7-6.4l5.9-33.2h44.7
		l2.6-15.1h-44.7l3.8-21.9h-21L258,496.8c-0.5,2.6-0.7,5.3-0.7,7.7c0,14,7.9,24.8,27.9,24.8c22.8,0,35.2-15.3,38.3-32.4l4.1-23
		H307.8z"/>
	<path class="st0" d="M386.6,444.3c-10,0-18.6,4.1-26.3,12.7l7.1-40.1h-21L327,527.2h20.5l2-9.9c3.6,8.2,10.5,12,20.4,12
		c24,0,43.7-20.9,43.7-52.6C413.6,457.6,404.2,444.3,386.6,444.3z M367.9,512c-8.7,0-14.5-6.2-14.5-18.6c0-16.9,7.2-30.9,23-30.9
		c10.2,0,15,4.3,15,17.7C391.4,499,380.5,512,367.9,512z"/>
	<path class="st0" d="M491.4,503.4h-22c-2.5,5.6-9.2,9-16.1,9c-9.4,0-14.8-4.8-14.8-16.3v-3.8h55.9c1-5.8,1.5-11,1.5-15.8
		c0-21.5-10.5-32.4-30.9-32.4c-28.9,0-47.6,20.5-47.6,51.8c0,21.9,11.3,33.4,34,33.4C468.6,529.4,483.6,520,491.4,503.4z
		 M461.4,461.2c7.2,0,13.8,2.5,13.8,12.8c0,1.5,0,3.1-0.3,4.9H441C444.1,468.9,450.5,461.2,461.4,461.2z"/>
	<path class="st0" d="M494.9,531.8c-1.6,9.2-5.6,14.8-14.1,14.8c-6.6,0-9.4-2.1-9.4-8.5c0-1.8,0.2-3.9,0.7-6.4h-20
		c-0.5,3.1-0.8,6.2-0.8,9c0,15.4,8.5,24.8,27.4,24.8c18.1,0,34.2-13.3,37.6-32.9l15.3-86.3H510L494.9,531.8z"/>
	<polygon class="st0" points="533.2,436.7 536.6,416.8 515.1,416.8 511.7,436.7 	"/>
	<path class="st0" d="M579.7,444.3c-28.9,0-47.6,20.5-47.6,51.8c0,21.9,11.3,33.4,34,33.4c17.3,0,32.2-9.4,40.1-26h-22
		c-2.5,5.6-9.2,9-16.1,9c-9.4,0-14.8-4.8-14.8-16.3v-3.8h55.9c1-5.8,1.5-11,1.5-15.8C610.6,455.1,600.1,444.3,579.7,444.3z
		 M589.5,478.9h-33.8c3.1-10,9.5-17.7,20.4-17.7c7.2,0,13.8,2.5,13.8,12.8C589.9,475.5,589.9,477.1,589.5,478.9z"/>
	<path class="st0" d="M661,444.3c-26,0-37.1,11.7-40.4,28.4h19.9c2.1-7.2,6.9-12,16.6-12c7.7,0,12.3,1.5,12.3,8.4
		c0,4.4-0.7,7.2-15.3,9.2c-25.8,3.5-42.7,8.7-42.7,32.7c0,11,7.4,18.4,23.5,18.4c10.8,0,20-3.8,26.1-9.4c-0.2,1.3-0.3,2.6-0.3,3.8
		c0,1.3,0.2,2.5,0.3,3.5h19.9l9-51.1c0.5-3.3,0.8-6.2,0.8-9.2C690.8,452.3,682.5,444.3,661,444.3z M664.8,496.5
		c-1.8,9.5-11.5,17.6-21.9,17.6c-5.6,0-9.5-2.1-9.5-7.2c0-7.6,3.1-11.7,18.4-14.5c8.2-1.5,12.2-2.6,14.6-4.8L664.8,496.5z"/>
	<polygon class="st0" points="709.7,416.8 690.3,527.2 711.6,527.2 731,416.8 	"/>
	<path class="st0" d="M775,444.3c-29.4,0-49.9,21-49.9,50.4c0,20.5,12.3,34.7,35,34.7c28.9,0,49.5-21,49.5-50.6
		C809.6,457.9,796.9,444.3,775,444.3z M763.2,511.5c-10.7,0-15.9-4.1-15.9-18.1c0-19.1,7.9-31.1,24.6-31.1
		c10.5,0,15.9,3.3,15.9,17.9C787.9,499.3,779.8,511.5,763.2,511.5z"/>
	<path class="st0" d="M875.1,446.4l-8.2,46.7c-2,10.7-9.4,18.4-19.9,18.4c-7.6,0-11.7-2-11.7-9.5c0-1.6,0.3-3.5,0.7-5.6l8.9-49.9
		h-21.4l-9.4,53.2c-0.5,2.3-0.7,4.6-0.7,6.7c0,14,8.9,23,22.8,23c11.2,0,20.2-4.3,27.4-13.5l-2,11.3H882l14.3-80.8H875.1z"/>
	<path class="st0" d="M937.4,460.2c9.4,0,12.5,2.3,12.5,10.7h20.5c0.2-1.5,0.3-3,0.3-4.4c0-14-8.9-22.2-29.9-22.2
		c-28.4,0-39.3,12.8-39.3,24.6c0,14,6.9,20.9,32.7,26.8c7.4,1.8,11.3,3.9,11.3,8.4c0,6.4-7.6,9.2-16.3,9.2c-8.5,0-14.3-3-14.3-9.5
		c0-0.8,0-1.6,0.2-2.5h-22c-0.2,1.5-0.3,3-0.3,4.3c0,14.6,12.7,23.8,33.8,23.8c26,0,40.9-12.5,40.9-28.6c0-17.4-10.2-18.1-33.2-24.6
		c-7.6-2.1-11.7-4.3-11.7-8.2C922.8,462.3,927.7,460.2,937.4,460.2z"/>
</g>
</svg>
